<!-- FacturaIA Logo — Variante A: Barcode Scanner -->
<svg xmlns="http://www.w3.org/2000/svg" width="400" height="400" viewBox="0 0 100 100" fill="none">
  <defs>
    <linearGradient id="mainGrad" x1="0" y1="0" x2="100" y2="100" gradientUnits="userSpaceOnUse">
      <stop offset="0%" stop-color="#22D3EE" />
      <stop offset="100%" stop-color="#3B82F6" />
    </linearGradient>
    <linearGradient id="darkSide" x1="0" y1="0" x2="100" y2="0">
      <stop offset="0%" stop-color="#0F172A" />
      <stop offset="100%" stop-color="#1E293B" />
    </linearGradient>
  </defs>

  <!-- SOMBRA (F oscura detrás) -->
  <g style="opacity: 0.72;" transform="translate(14, 14)">
    <path d="M20 20 H70 C75.5 20 80 24.5 80 30 V98" stroke="url(#darkSide)" stroke-width="14" stroke-linecap="round" stroke-linejoin="round" fill="none"/>
    <rect x="20" y="46" width="53" height="12" rx="6" fill="url(#darkSide)"/>
    <g><circle cx="70" cy="70" r="10" fill="url(#darkSide)"/></g>
  </g>

  <!-- CARA FRONTAL (F cyan) -->
  <g>
    <path d="M20 20 H70 C75.5 20 80 24.5 80 30 V98" stroke="url(#mainGrad)" stroke-width="14" stroke-linecap="round" stroke-linejoin="round" fill="none"/>
    <rect x="20" y="46" width="53" height="12" rx="6" fill="url(#mainGrad)"/>
    <g transform="translate(70, 70)">
      <circle r="10" fill="#3B82F6"/>
      <!-- 3 líneas horizontales tipo barcode -->
      <line x1="-4" y1="-4" x2="4" y2="-4" stroke="white" stroke-width="1.2" stroke-linecap="round"/>
      <line x1="-4" y1="-1" x2="2" y2="-1" stroke="white" stroke-width="1.2" stroke-linecap="round"/>
      <line x1="-4" y1="2" x2="4" y2="2" stroke="white" stroke-width="1.2" stroke-linecap="round"/>
      <!-- Rayo de escaneo vertical -->
      <line x1="0" y1="-6" x2="0" y2="6" stroke="white" stroke-width="0.6" stroke-opacity="0.7"/>
    </g>
  </g>
</svg>
